<?xml version="1.0" encoding="utf-8"?>
<!-- Generator: Adobe Illustrator 18.1.0, SVG Export Plug-In . SVG Version: 6.00 Build 0)  -->
<!DOCTYPE svg PUBLIC "-//W3C//DTD SVG 1.1//EN" "http://www.w3.org/Graphics/SVG/1.1/DTD/svg11.dtd">
<svg version="1.1" id="Layer_1" xmlns="http://www.w3.org/2000/svg" xmlns:xlink="http://www.w3.org/1999/xlink" x="0px" y="0px"
	 viewBox="0 0 104 35" enable-background="new 0 0 104 35" xml:space="preserve">
<g>
	<polygon fill="#23629D" points="96.9,35 56.8,35 63.3,0 103.4,0 	"/>
	<polygon fill="#2EA2CF" points="69.6,35 0,35 0,0 76.1,0 	"/>
	<g>
		<g>
			<path fill="#FFFFFF" d="M20.6,19.5h-2.5v5.6h-2.9V9.4h5.4c1.9,0,3.2,0.5,4,1.5c0.7,0.9,1,2.1,1,3.5c0,1.4-0.3,2.6-1,3.5
				C23.8,19,22.5,19.5,20.6,19.5z M18.1,17.3h2c1.7,0,2.5-0.9,2.5-2.8c0-1.9-0.8-2.8-2.5-2.8h-2V17.3z"/>
			<path fill="#FFFFFF" d="M31.9,25.4c-2,0-3.4-0.5-4.2-1.6c-0.8-1.1-1.3-2.7-1.3-4.8c0-4.3,1.8-6.4,5.4-6.4c2.1,0,3.5,0.6,4.3,1.9
				c0.7,1.1,1,2.5,1,4.3v0.8h-7.9c0,1.3,0.2,2.3,0.7,2.8c0.4,0.6,1.1,0.8,2.1,0.8c1.6,0,2.4-0.6,2.5-1.7l2.4,0.1
				C36.6,24.1,35,25.4,31.9,25.4z M33.5,15.4c-0.4-0.5-0.9-0.7-1.8-0.7S30.3,15,30,15.4c-0.4,0.5-0.6,1.2-0.7,2.2h5
				C34.1,16.6,33.9,15.9,33.5,15.4z"/>
			<path fill="#FFFFFF" d="M47.8,20c-0.3,0.5-0.8,0.8-1.5,1.1c-0.7,0.3-1.5,0.4-2.4,0.4c-0.9,0-1.7-0.1-2.3-0.3l-0.6,0.6
				c-0.2,0.2-0.4,0.5-0.4,0.7c0,0.3,0.2,0.5,0.7,0.5H46c1.1,0,2,0.3,2.7,0.9c0.7,0.6,1,1.3,1,2.2c0,0.8-0.2,1.5-0.5,2
				c-0.3,0.5-0.8,0.8-1.5,1.1c-1.1,0.4-2.5,0.6-4.2,0.6c-1.7,0-3-0.2-3.9-0.6c-0.9-0.4-1.4-1.1-1.4-2.1c0-0.5,0.1-0.9,0.4-1.3
				c0.3-0.4,0.6-0.7,1-0.9c-0.9-0.3-1.3-0.9-1.3-1.9c0-0.7,0.3-1.3,0.8-1.8l1-1c-0.7-0.8-1-1.8-1-3.1c0-1.2,0.3-2.2,0.9-3
				c0.7-1,2-1.5,3.9-1.5c0.8,0,1.5,0.1,2.1,0.3h3.6v1.7h-1.4c0.4,0.7,0.6,1.4,0.6,2.2c0,0.8-0.1,1.4-0.2,1.9
				C48.4,19.1,48.2,19.6,47.8,20z M40.8,26.4c0,0.5,0.2,0.8,0.7,1c0.5,0.1,1.2,0.2,2.3,0.2c1.1,0,1.8-0.1,2.3-0.2
				c0.5-0.2,0.7-0.5,0.7-1.1c0-0.8-0.6-1.2-1.7-1.2h-3.7C41,25.5,40.8,25.9,40.8,26.4z M43.9,14.4c-1.4,0-2.1,0.9-2.1,2.6
				c0,1.7,0.7,2.6,2.1,2.6c1.4,0,2.1-0.9,2.1-2.6C46,15.3,45.3,14.4,43.9,14.4z"/>
			<path fill="#FFFFFF" d="M55.9,12.5c3.1,0,4.7,1.4,4.7,4.3v8.3h-1.9l-0.8-1.5c-1.1,1.2-2.5,1.8-4,1.8c-1.1,0-1.9-0.3-2.5-0.9
				c-0.6-0.6-0.8-1.4-0.8-2.4c0-1,0.3-1.9,1-2.5c0.6-0.6,1.8-1.1,3.6-1.3l2.6-0.4v-1c0-1.4-0.7-2.1-2-2.1c-1.2,0-2,0.6-2.2,1.9
				L51.3,16C51.8,13.7,53.4,12.5,55.9,12.5z M54.8,23.3c1,0,1.9-0.5,2.9-1.4v-2.2L55.6,20c-0.9,0.2-1.5,0.4-1.8,0.8
				c-0.3,0.3-0.5,0.7-0.5,1.2c0,0.4,0.1,0.8,0.4,1C54,23.2,54.4,23.3,54.8,23.3z"/>
			<path fill="#FFFFFF" d="M63,13.9c-0.4-0.4-0.6-1-0.6-1.9c0-0.8,0.2-1.4,0.6-1.9c0.4-0.4,1-0.6,1.9-0.6c0.8,0,1.4,0.2,1.9,0.6
				c0.4,0.4,0.6,1,0.6,1.9c0,0.8-0.2,1.4-0.6,1.9c-0.4,0.4-1.1,0.6-1.9,0.6C64.1,14.6,63.5,14.4,63,13.9z M64.9,10
				c-1.4,0-2.1,0.7-2.1,2.1c0,1.4,0.7,2.1,2.1,2.1c1.4,0,2.1-0.7,2.1-2.1C67,10.7,66.3,10,64.9,10z M63.9,10.4h1
				c0.4,0,0.7,0.1,0.9,0.4c0.1,0.2,0.2,0.4,0.2,0.6c0,0.5-0.2,0.8-0.6,0.9c0.1,0.1,0.1,0.2,0.2,0.3l0.5,1.1h-0.5l-0.5-1.1
				c-0.1-0.2-0.2-0.3-0.4-0.3h-0.4v1.4h-0.5L63.9,10.4L63.9,10.4z M64.4,12h0.6c0.4,0,0.6-0.2,0.6-0.6c0-0.4-0.2-0.6-0.6-0.6h-0.6
				V12z"/>
			<path fill="#FFFFFF" d="M78.3,12V9.3h12.8v2.4l-7.1,16.3h-3.7l7-16L78.3,12L78.3,12z"/>
		</g>
	</g>
</g>
</svg>
