<svg width="200" height="200" viewBox="0 0 200 200" xmlns="http://www.w3.org/2000/svg" xmlns:sketch="http://www.bohemiancoding.com/sketch/ns"><title>Slice</title><g sketch:type="MSPage" fill="none"><path fill="#78A440" sketch:type="MSShapeGroup" d="M0 0h200v200h-200z"/><g sketch:type="MSLayerGroup" fill="#fff"><path d="M156.224 114c-6.463 3.659-13.501 5.391-20.423 5.391-4.512 0-8.975-.75-12.753-2.264-6.895 6.27-14.308 10.658-18.047 12.698 5.413 8.647 14.012 15.292 24.647 17.963 3.287.824 6.585 1.213 9.824 1.213 7.27 0 14.27-2.005 20.215-5.229.877-3.424 1.315-6.94 1.315-10.494-.003-6.544-1.555-13.161-4.776-19.277zM148.931 63.326c-1.261 8.213-4.885 15.519-9.974 20.956.264 1.446.45 3.025.45 4.677-.021 9.613-5.085 17.966-11.407 24.698 1.812.221 3.638.343 5.45.343 9.009 0 18.097-2.832 25.784-8.696 8.877-6.82 14.223-16.45 15.767-26.27-5.979-7.705-14.766-13.233-24.554-15.642-.511-.109-.968-.305-1.49-.392l-.025.326zM142 56.074c0-10.957-4.373-20.885-11.206-28.074h-.597c-9.809 0-18.403 3.442-26.198 10.406 7.443 7.82 10.125 17.741 10.125 27.658 0 .797-.028 1.588-.049 2.364 1.678-.419 3.376-.62 5.043-.62h.442c6.408.125 12.866 3.272 16.568 9.193 3.709-6.125 5.871-13.269 5.871-20.926zM68.353 28.123c-.622 0-1.212 0-1.429-.123-6.788 7.373-10.864 17.112-10.864 27.722 0 .148 0 .281-.06.366l1.436-.018c11.433 0 21.891 4.502 29.305 11.749 6.226.436 12.591 3.701 15.942 10.181 1.798-3.483 4.474-6.027 7.296-7.328l.021-1.42c0-11.362-4.755-22.689-13.998-30.787-7.95-6.966-17.815-10.343-27.649-10.343zM80 68.555c-6.178-3.557-13.273-5.555-20.724-5.555-2.386 0-4.818.205-7.229.638-10.947 1.94-20.102 7.953-26.048 15.858 1.617 9.785 6.853 18.991 15.305 25.504 6.178-8.175 14.83-13.456 23.777-15.157l-.021-1.315c-.014-11.079 6.958-17.95 14.939-19.973zM43.908 114.431c-3.331 6.174-4.908 12.771-4.908 19.304 0 3.903.557 7.76 1.414 11.195 6.09 3.297 12.972 5.07 20.087 5.07 3.356 0 6.765-.402 10.195-1.231-1.05-3.748-1.564-7.496-1.564-11.216 0-8.839 2.842-17.323 7.868-24.343-4.844-5.172-8.964-11.293-10.652-18.211-9.321 3.417-17.442 10.088-22.439 19.431zM100.546 174c9.274-3.991 17.108-11.317 21.454-21.132-10.572-4.356-18.385-12.542-22.336-21.992-3.379-1.734-12.11-6.596-20.054-13.876-3.005 5.806-4.61 12.275-4.61 18.875 0 5.588 1.118 11.275 3.602 16.709 4.561 10.162 12.738 17.551 21.944 21.416z" sketch:type="MSShapeGroup"/></g></g></svg>