<svg width="84" height="84" viewBox="0 0 84 84" xmlns="http://www.w3.org/2000/svg"><title>linkedin</title><g fill="none" fill-rule="evenodd"><path fill="#007AB5" d="M0 0h84v84H0z"/><path d="M18.687 11.565a7.226 7.226 0 0 1 7.22 7.22c0 3.989-3.237 7.227-7.22 7.227a7.224 7.224 0 0 1 0-14.447zm-6.233 60.014h12.46V31.492h-12.46v40.087zm20.274-40.087h11.951v5.477h.166c1.662-3.152 5.727-6.474 11.788-6.474 12.616 0 14.946 8.302 14.946 19.095v21.99h-12.45V52.084c0-4.651-.087-10.63-6.475-10.63-6.483 0-7.476 5.064-7.476 10.293V71.58h-12.45V31.492z" fill="#FEFEFE"/></g></svg>