<svg width="84" height="84" viewBox="0 0 84 84" xmlns="http://www.w3.org/2000/svg"><title>github</title><g fill="none" fill-rule="evenodd"><path fill="#000" d="M0 0h84v84H0z"/><g fill="#FEFEFE"><path d="M41.944 12.496C25.41 12.496 12 25.9 12 42.436c0 13.228 8.58 24.45 20.478 28.41 1.496.277 2.046-.65 2.046-1.44 0-.714-.028-3.073-.041-5.575-8.33 1.811-10.088-3.532-10.088-3.532-1.363-3.46-3.325-4.381-3.325-4.381-2.717-1.858.205-1.82.205-1.82 3.007.211 4.59 3.086 4.59 3.086 2.67 4.576 7.005 3.253 8.714 2.488.268-1.935 1.044-3.256 1.9-4.004-6.65-.756-13.642-3.324-13.642-14.796 0-3.268 1.17-5.94 3.085-8.037-.31-.754-1.336-3.799.29-7.923 0 0 2.515-.804 8.237 3.07 2.389-.664 4.95-.996 7.495-1.008 2.545.012 5.109.344 7.502 1.007 5.715-3.873 8.226-3.069 8.226-3.069 1.63 4.124.605 7.17.294 7.923 1.92 2.098 3.082 4.769 3.082 8.037 0 11.5-7.006 14.031-13.673 14.773 1.074.929 2.03 2.75 2.03 5.544 0 4.006-.034 7.23-.034 8.217 0 .797.539 1.73 2.057 1.436 11.891-3.963 20.46-15.182 20.46-28.406 0-16.536-13.406-29.94-29.944-29.94"/><path d="M23.342 55.483c-.066.15-.3.194-.514.092-.217-.098-.339-.301-.268-.45.064-.153.298-.196.515-.094.217.098.341.303.267.452m1.213 1.353c-.143.132-.423.07-.612-.138-.196-.21-.232-.489-.088-.623.148-.132.418-.07.614.139.197.21.235.488.086.622m1.18 1.724c-.183.128-.484.008-.67-.258-.183-.267-.183-.586.005-.714.186-.128.482-.012.67.252.183.27.183.59-.005.72m1.618 1.666c-.165.181-.514.132-.77-.114-.262-.242-.335-.584-.17-.765.166-.182.518-.13.775.114.26.241.34.586.165.765m2.231.968c-.072.234-.41.34-.748.24-.339-.102-.56-.376-.492-.613.07-.237.408-.347.75-.24.338.101.56.374.49.613m2.451.179c.008.247-.28.451-.636.456-.358.008-.648-.192-.652-.435 0-.25.282-.452.64-.458.356-.007.648.192.648.437m2.28-.388c.043.24-.205.488-.558.554-.348.064-.67-.086-.714-.324-.043-.247.208-.494.556-.558.354-.062.67.083.716.328"/></g></g></svg>