<svg class="resolved2-resolved" xmlns="http://www.w3.org/2000/svg" viewBox="0 0 16 16">
    <title>✓</title>
    <circle cx="8" cy="8" r="8" style="fill: #86d68d"/>
    <circle cx="8" cy="8" r="7.5" style="fill: none;stroke: #000;stroke-opacity: 0.122"/>
    <path d="M16.2,10.2a.6.6,0,0,1-.1.4l-4.5,4.5c-.1.1-.2.1-.4.1a.6.6,0,0,1-.4-.1L8.2,12.5c-.2-.1-.2-.7-.1-.8a2.085,2.085,0,0,1,.7-.7.9.9,0,0,1,.8,0q.1.1,1.5,1.6l3.5-3.5a.367.367,0,0,1,.3-.1.6.6,0,0,1,.4.1l.7.8C16.1,10,16.2,10.1,16.2,10.2Z" transform="translate(-4 -4)" style="fill: #fff"/>
</svg>
