<svg width="200" height="200" viewBox="0 0 200 200" xmlns="http://www.w3.org/2000/svg"><title>Rectangle</title><g fill="none"><path fill="#A0D2F1" d="M0 0h200v200H0z"/><path d="M85.169 53.017c5.662-5.899 13.546-9.56 22.266-9.56 11.589 0 21.703 6.463 27.086 16.058a37.437 37.437 0 0 1 15.311-3.256c20.905 0 37.854 17.097 37.854 38.192 0 21.089-16.948 38.184-37.854 38.184-2.552 0-5.046-.257-7.456-.743-4.742 8.457-13.781 14.172-24.151 14.172a27.52 27.52 0 0 1-12.107-2.786c-4.807 11.309-16.01 19.239-29.061 19.239-13.594 0-25.18-8.602-29.626-20.666-1.945.412-3.96.627-6.025.627-16.185 0-29.306-13.256-29.306-29.61a29.658 29.658 0 0 1 14.655-25.649 33.888 33.888 0 0 1-2.806-13.547c0-18.812 15.268-34.059 34.103-34.059 11.058 0 20.886 5.256 27.116 13.404" fill="#fff"/><path d="M45.363 99.166h.634c.633 3.011 1.635 4.434 3.604 4.434 1.769 0 2.903-1.324 2.903-2.944 0-1.554-1.034-2.314-2.87-3.274-2.47-1.255-4.105-2.117-4.105-4.362 0-2.248 1.871-3.904 4.739-3.904 1.369 0 2.738.365 4.073 1.126v3.505h-.701c-.299-2.513-1.835-4.001-3.605-4.001-1.5 0-2.469.86-2.469 2.118 0 1.452 1.036 1.916 2.302 2.61 3.005 1.62 5.105 2.446 5.105 5.258 0 2.711-2.335 4.596-5.571 4.596a8.055 8.055 0 0 1-4.039-1.092v-4.069zm19.1-2.975c-3.669 1.388-5.405 2.415-5.405 4.001 0 1.356 1.101 2.318 2.536 2.318 1 0 1.803-.498 2.869-1.325v-4.994zm-4.571 8.136c-1.869 0-3.138-1.191-3.138-2.945 0-2.644 2.468-4.099 7.81-6.017v-3.306c0-1.357-.569-1.984-1.87-1.984-1.5 0-3.036.727-3.036 1.851 0 1.819-.367 2.711-1.636 2.711-.767 0-1.269-.463-1.269-1.222 0-1.688 3.705-4.333 7.008-4.333 3.136 0 3.373 1.885 3.373 4.829v7.969c0 .529.235.892.667.892.468 0 .8-.396.866-1.125h.635c-.2 1.721-1.133 2.613-2.637 2.613-1.301 0-2.168-.795-2.301-2.248-1.635 1.553-3.103 2.315-4.473 2.315zm30.316-5.161h.635c.634 3.011 1.635 4.434 3.604 4.434 1.768 0 2.903-1.324 2.903-2.944 0-1.554-1.033-2.314-2.87-3.274-2.467-1.255-4.104-2.117-4.104-4.362 0-2.248 1.87-3.904 4.737-3.904 1.372 0 2.737.365 4.074 1.126v3.505h-.703c-.3-2.513-1.835-4.001-3.603-4.001-1.502 0-2.47.86-2.47 2.118 0 1.452 1.035 1.916 2.303 2.61 3.003 1.62 5.106 2.446 5.106 5.258 0 2.711-2.336 4.596-5.572 4.596a8.066 8.066 0 0 1-4.04-1.092v-4.069zM82.83 90.16c2.284 0 2.709 2.275 2.709 3.064 0 .311-.283.484-.95.484h-5.451c.669-2.55 2.145-3.547 3.692-3.547zm5.538 9.312a6.826 6.826 0 0 1-1.213 1.672l-.135.136-.372.312-.096.075a4.352 4.352 0 0 1-.455.28l-.34.164-.059.026c-1.463.594-2.88.187-3.497-.074l-.171-.076c-1.86-.845-3.139-2.939-3.139-5.523 0-.789.036-1.413.107-1.722h8.686c.564 0 .984-.071.984-.553 0-1.342-1.127-5.062-5.169-5.062-1.76 0-3.516.309-5.03 1.823-1.863 1.828-2.215 4.208-2.215 5.549 0 2.411.317 3.686 1.549 5.444.635.908 1.489 1.508 2.429 1.888l-.002.003.042.016.049.018c.222.086.446.157.673.221 1.879.485 3.423.139 4.158-.193 1.46-.663 2.694-1.979 3.572-3.877l.146-.315-.503-.232zm-12.878 3.863v.627h-6.174v-.627c1.703-.067 1.917-.503 1.917-2.389V84.39c0-1.223-.207-1.66-1.617-2.29v-.395a19.628 19.628 0 0 0 3.759-1.588h.23v21.356c0 1.49.215 1.861 1.885 1.861" fill="#9D948F"/><path d="M125.744 100.888v-7.44c0-1.257-.165-1.753-1.568-2.348v-.398c1.335-.428 2.603-.924 3.836-1.588h.235v2.381c1.036-1.619 2.302-2.479 3.504-2.479 1.071 0 1.704.628 1.704 1.621 0 .725-.502 1.225-1.136 1.225-.701 0-1.368-.565-2.169-.565-.734 0-1.535.529-1.903 1.423v8.695c0 1.688.166 1.92 2.337 1.92v.627h-6.676v-.627c1.703-.067 1.835-.497 1.835-2.448m-5.254-4.167c0-4.462-1.637-6.81-4.073-6.81-2.436 0-4.071 2.413-4.071 6.81 0 4.465 1.635 6.847 4.071 6.847s4.073-2.448 4.073-6.847m-4.073 7.64c-4.071 0-6.843-3.009-6.843-7.64 0-4.628 2.773-7.605 6.843-7.605 4.073 0 6.874 2.976 6.874 7.605 0 4.631-2.836 7.64-6.874 7.64" fill="#1A1918"/><path d="M133.189 96.752c0-4.429 3.003-7.67 7.007-7.67 2.937 0 5.343 1.852 5.343 3.737 0 .628-.57 1.191-1.27 1.191-1.102 0-1.237-.993-1.568-2.25-.37-1.322-.97-1.917-2.203-1.917-2.638 0-4.64 2.447-4.64 5.95 0 3.971 2.335 6.615 5.108 6.615 1.801 0 3.269-.994 4.339-3.011l.5.232c-1.302 3.042-3.473 4.698-6.041 4.698-3.671 0-6.574-3.111-6.574-7.575zm20.14-6.592c2.285 0 2.71 2.275 2.71 3.064 0 .311-.284.484-.951.484h-5.449c.666-2.55 2.144-3.547 3.69-3.547zm5.539 9.312a6.774 6.774 0 0 1-1.213 1.672l-.134.136-.373.312-.095.075a4.583 4.583 0 0 1-.456.28l-.338.164-.061.026c-1.462.594-2.881.187-3.498-.074l-.17-.076c-1.86-.845-3.139-2.939-3.139-5.523 0-.789.036-1.413.107-1.722h8.687c.563 0 .985-.071.985-.553 0-1.342-1.126-5.062-5.172-5.062-1.757 0-3.514.309-5.028 1.823-1.865 1.828-2.216 4.208-2.216 5.549 0 2.411.318 3.686 1.549 5.444.635.908 1.49 1.508 2.43 1.888l-.002.003.044.016.047.018c.22.086.445.157.671.221 1.881.485 3.426.139 4.159-.193 1.46-.663 2.695-1.979 3.574-3.877l.146-.315-.503-.232zm-44.875-19.353c-3.663 0-6.727 3.117-8.829 9.355h-.006l-.004.009-.042.001-3.978-.007-.249 1.028h3.947l-5.024 16.174c-2.336 7.574-4.031 11.674-7.595 11.674-1.231 0-1.952-.545-1.952-1.047l.084-.838c0-.964-.508-1.506-1.356-1.506-.807 0-1.4.586-1.4 1.381 0 1.717 1.868 2.889 4.454 2.889 5.772 0 8.102-4.689 10.394-12.092l5.111-16.636h3.606l.267-1.028-1-.003h-2.581c.497-1.659 1.543-4.786 2.842-6.628v.002c.825-1.205 1.752-1.807 2.913-1.807 2.443 0 2.256 3.229 4.126 3.229.667 0 1.069-.396 1.069-1.012 0-1.319-1.703-3.139-4.797-3.139" fill="#1A1918"/><path d="M163.65 90.424l-.032-.126-.091-.09-.129-.039-.171-.013h-.293v.604h.25l.21-.02.144-.068.087-.101.026-.148zm.688 1.271h-.439l-.648-.69h-.318v.69h-.328V89.91h.617l.304.015.231.08c.09.042.142.096.182.158a.42.42 0 0 1 .059.233c0 .135-.029.235-.107.321a.733.733 0 0 1-.304.197l.75.78zm.379-.858a1.4 1.4 0 0 0-.434-1.032 1.395 1.395 0 0 0-1.035-.436c-.404 0-.758.146-1.044.436-.287.281-.429.63-.429 1.032 0 .401.142.748.429 1.034.286.291.639.434 1.044.434a1.39 1.39 0 0 0 1.035-.434c.287-.286.434-.633.434-1.034zm.23 0a1.6 1.6 0 0 1-.497 1.19 1.647 1.647 0 0 1-1.203.495c-.476 0-.875-.162-1.206-.495a1.607 1.607 0 0 1-.501-1.19c0-.465.169-.863.501-1.19.331-.334.73-.496 1.206-.496.466 0 .866.162 1.203.496.333.327.497.725.497 1.19z" fill="#9D948F"/></g></svg>