<?xml version="1.0" encoding="UTF-8" standalone="no"?>
<svg xmlns="http://www.w3.org/2000/svg" xmlns:xlink="http://www.w3.org/1999/xlink" width="40px" height="40px" viewBox="0 0 40 40" version="1.1"><title>Aww Friendly</title><desc>Your unique vanillicon is crafted with love by the team at vanillaforums.com.</desc><defs/><g id="vanillicon" stroke="none" stroke-width="1" fill="none" fill-rule="evenodd"><rect id="background" fill="#0CA2DC" x="-2" y="-2" width="44" height="44"/><g id="avatar" transform="rotate(-44, 20, 20) translate(3.000000, 3.000000)"><circle id="body" fill="#F45604" cx="17" cy="17" r="16"/><g id="eyes" transform="translate(8.000000, 11.000000)" fill="#1C225C"><path d="M3,6 C4.65685425,6 6,4.65685425 6,3 C6,1.34314575 4.65685425,0 3,0 C1.34314575,0 0,1.34314575 0,3 C0,4.65685425 1.34314575,6 3,6 Z" id="left_eye"/><circle id="right_eye" cx="15" cy="3" r="3"/></g><g id="mouth" transform="translate(11.000000, 20.000000)" fill="#1C225C"><path d="M10.9796168,-9.09494702e-13 L1.02038319,-9.09494702e-13 C0.499756348,-9.59232693e-13 0.0662307288,0.399462416 0.0237220459,0.918350958 C0.00793646266,1.11104002 0,1.30505552 0,1.5 C0,5.06970862 2.66390125,8 6,8 C9.33609875,8 12,5.06970862 12,1.5 C12,1.30505552 11.9920635,1.11104002 11.976278,0.918350958 C11.9337693,0.399462416 11.5002437,-8.5975671e-13 10.9796168,-9.09494702e-13 Z" id="mouth"/></g><path d="M34,17 C34,7.61115925 26.3888407,0 17,0 C7.61115925,0 0,7.61115925 0,17 C0,26.3888407 7.61115925,34 17,34 C26.3888407,34 34,26.3888407 34,17 Z M3,17 C3,9.2680135 9.2680135,3 17,3 C24.7319865,3 31,9.2680135 31,17 C31,24.7319865 24.7319865,31 17,31 C9.2680135,31 3,24.7319865 3,17 Z" id="circle" fill="#1C225C"/></g></g></svg>
